<svg width="110" height="110" viewBox="0 0 110 110" fill="none" xmlns="http://www.w3.org/2000/svg">
<path d="M83.6844 18.7821C83.6844 16.2014 82.6773 13.7719 80.8519 11.9466L71.7378 2.8325C69.9379 1.03232 67.3827 0 64.8398 0H64.286V19.3359H83.6847L83.6844 18.7821Z" fill="#60E28D"/>
<path d="M58.8537 66.5021C59.4705 64.6295 60.5468 62.8861 61.9504 61.473L83.7704 39.7409V25.7812H61.1258C59.3446 25.7812 58.0078 24.3399 58.0078 22.5586V0H9.66797C4.33684 0 0 4.33684 0 9.66797V100.332C0 105.663 4.33684 110 9.66797 110H74.0165C79.3476 110 83.7704 105.663 83.7704 100.332V76.2801L80.2289 79.7356C78.7939 81.1581 77.1134 82.1934 75.2187 82.8261L64.9718 86.2471L63.4107 86.3322C60.83 86.3322 58.3879 85.0764 56.8711 82.9742C55.3667 80.8814 54.9577 78.1685 55.7758 75.717L58.8537 66.5021ZM16.1133 58.0078H48.2352C50.0165 58.0078 51.4579 59.4492 51.4579 61.2305C51.4579 63.0117 50.0165 64.4531 48.2352 64.4531H16.1133C14.332 64.4531 12.8906 63.0117 12.8906 61.2305C12.8906 59.4492 14.332 58.0078 16.1133 58.0078ZM12.8906 48.3398C12.8906 46.5586 14.332 45.1172 16.1133 45.1172H48.2352C50.0165 45.1172 51.4579 46.5586 51.4579 48.3398C51.4579 50.1211 50.0165 51.5625 48.2352 51.5625H16.1133C14.332 51.5625 12.8906 50.1211 12.8906 48.3398ZM12.8906 74.1211C12.8906 72.3398 14.332 70.8984 16.1133 70.8984H48.2352C50.0165 70.8984 51.4579 72.3398 51.4579 74.1211C51.4579 75.9024 50.0165 77.3438 48.2352 77.3438H16.1133C14.332 77.3438 12.8906 75.9024 12.8906 74.1211ZM61.1258 90.2344C62.9071 90.2344 64.3485 91.6758 64.3485 93.457C64.3485 95.2383 62.9073 96.6797 61.1258 96.6797H41.7899C40.0086 96.6797 38.5672 95.2383 38.5672 93.457C38.5672 91.6758 40.0086 90.2344 41.7899 90.2344H61.1258ZM16.1133 38.6719C14.332 38.6719 12.8906 37.2305 12.8906 35.4492C12.8906 33.6679 14.332 32.2266 16.1133 32.2266H61.1258C62.9071 32.2266 64.3485 33.6679 64.3485 35.4492C64.3485 37.2305 62.9071 38.6719 61.1258 38.6719H16.1133Z" fill="#60E28D"/>
<path d="M64.6918 69.3533L61.8881 77.7646C61.4679 79.0247 62.6669 80.2233 63.927 79.8024L72.3334 76.9949L64.6918 69.3533Z" fill="#60E28D"/>
<path d="M89.7207 42.8199L68.4965 64.0441L77.6499 73.1975C82.4469 68.3996 91.7808 59.0644 98.873 51.9722L89.7207 42.8199Z" fill="#60E28D"/>
<path d="M108.106 33.5766C106.973 32.4373 105.305 31.7859 103.536 31.7859C101.768 31.7859 100.1 32.4373 98.9605 33.5799L94.2775 38.2628L103.429 47.4147C105.993 44.8508 107.765 43.0788 108.113 42.7313C110.63 40.2102 110.63 36.1036 108.106 33.5766Z" fill="#60E28D"/>
<path d="M108.113 42.7316C108.113 42.7316 108.113 42.7314 108.113 42.7311C108.121 42.723 108.125 42.7193 108.132 42.7127C108.125 42.7195 108.121 42.7232 108.113 42.7316Z" fill="#60E28D"/>
<path d="M108.132 42.7127C108.142 42.7023 108.154 42.6903 108.16 42.6841C108.154 42.6905 108.142 42.7023 108.132 42.7127Z" fill="#60E28D"/>
<path d="M108.16 42.6845C108.182 42.6631 108.182 42.6627 108.16 42.6845V42.6845Z" fill="#60E28D"/>
</svg>
