<svg width="40" height="40" viewBox="0 0 40 40" fill="none" xmlns="http://www.w3.org/2000/svg">
<g clip-path="url(#clip0)">
<path fill-rule="evenodd" clip-rule="evenodd" d="M15.345 39.4963C15.345 39.775 15.57 40 15.8488 40H23.03C23.3088 40 23.5337 39.775 23.5337 39.4963V19.8425H28.74C29.0025 19.8425 29.22 19.6425 29.2425 19.38L29.7425 13.46C29.7484 13.3906 29.7398 13.3207 29.7173 13.2547C29.6948 13.1888 29.6588 13.1282 29.6117 13.0769C29.5646 13.0256 29.5074 12.9846 29.4436 12.9565C29.3798 12.9284 29.3109 12.9138 29.2412 12.9138H23.5337V8.7125C23.5337 7.7275 24.3313 6.92875 25.3162 6.92875H29.3287C29.6075 6.92875 29.8325 6.70375 29.8325 6.425V0.50375C29.8325 0.370147 29.7794 0.242016 29.685 0.147545C29.5905 0.0530735 29.4624 0 29.3287 0L22.55 0C20.6394 0 18.8071 0.758964 17.4562 2.10993C16.1052 3.46089 15.3463 5.2932 15.3463 7.20375V12.9138H11.7537C11.6204 12.9137 11.4924 12.9667 11.398 13.0609C11.3036 13.1551 11.2503 13.2829 11.25 13.4163V19.3387C11.25 19.6175 11.475 19.8425 11.7537 19.8425H15.345V39.4963Z" fill="#8FEAAF"/>
</g>
<defs>
<clipPath id="clip0">
<rect width="40" height="40" fill="white"/>
</clipPath>
</defs>
</svg>
