<svg width="40" height="40" viewBox="0 0 40 40" fill="none" xmlns="http://www.w3.org/2000/svg">
<path d="M36.2262 27.9513C36.2262 29.0379 36.0122 30.114 35.5964 31.118C35.1805 32.1219 34.571 33.0342 33.8026 33.8026C33.0342 34.571 32.1219 35.1805 31.118 35.5964C30.114 36.0122 29.0379 36.2262 27.9513 36.2262H12.0487C9.85408 36.2262 7.7493 35.3544 6.19744 33.8026C4.64558 32.2507 3.77375 30.1459 3.77375 27.9513V12.0475C3.77375 9.85283 4.64558 7.74805 6.19744 6.19619C7.7493 4.64433 9.85408 3.7725 12.0487 3.7725H27.9513C30.1459 3.7725 32.2507 4.64433 33.8026 6.19619C35.3544 7.74805 36.2262 9.85283 36.2262 12.0475V27.9513ZM40 12.0475C40 5.39375 34.605 0 27.95 0H12.05C5.39375 0 0 5.39375 0 12.0475V27.9513C0 34.605 5.395 40 12.05 40H27.95C31.1459 40 34.2108 38.7304 36.4706 36.4706C38.7304 34.2108 40 31.1459 40 27.95V12.0475ZM20.0675 26.585C18.39 26.583 16.7817 25.9157 15.5955 24.7295C14.4093 23.5433 13.742 21.935 13.74 20.2575C13.742 18.58 14.4093 16.9717 15.5955 15.7855C16.7817 14.5993 18.39 13.932 20.0675 13.93C21.7451 13.9317 23.3536 14.5988 24.5399 15.7851C25.7262 16.9714 26.3933 18.5798 26.395 20.2575C26.3933 21.9351 25.7262 23.5436 24.5399 24.7299C23.3536 25.9162 21.7451 26.5833 20.0675 26.585ZM20.0675 10.38C14.6213 10.38 10.19 14.8112 10.19 20.2575C10.19 25.705 14.6213 30.135 20.0675 30.135C25.515 30.135 29.9463 25.705 29.9463 20.2575C29.9463 14.8112 25.515 10.38 20.0675 10.38ZM30.5225 7.36375C30.2136 7.36375 29.9078 7.42458 29.6225 7.54278C29.3371 7.66097 29.0779 7.83421 28.8595 8.0526C28.6411 8.27099 28.4678 8.53026 28.3496 8.8156C28.2315 9.10094 28.1706 9.40677 28.1706 9.71562C28.1706 10.0245 28.2315 10.3303 28.3496 10.6156C28.4678 10.901 28.6411 11.1603 28.8595 11.3787C29.0779 11.597 29.3371 11.7703 29.6225 11.8885C29.9078 12.0067 30.2136 12.0675 30.5225 12.0675C31.1463 12.0675 31.7445 11.8197 32.1855 11.3787C32.6266 10.9376 32.8744 10.3394 32.8744 9.71562C32.8744 9.09187 32.6266 8.49366 32.1855 8.0526C31.7445 7.61154 31.1463 7.36375 30.5225 7.36375Z" fill="#8FEAAF"/>
</svg>
