<svg width="110" height="110" viewBox="0 0 110 110" fill="none" xmlns="http://www.w3.org/2000/svg">
<path d="M106.532 108.802C107.228 108.105 107.792 107.54 107.792 107.54L109.052 106.278C109.747 105.578 108.558 102.351 106.394 99.0696L100.845 90.644C98.6808 87.3626 95.2616 84.3493 93.2046 83.9176C91.1476 83.4832 89.4794 83.1321 89.4794 83.1321L72.7543 66.414L66.6659 72.5071L83.377 89.2275L84.1672 92.9527C84.6015 95.0073 87.6171 98.4313 90.8986 100.593L99.3288 106.15C102.61 108.311 105.837 109.5 106.532 108.802Z" fill="#60E28D"/>
<path d="M3.97212 21.6577L28.8239 46.5095L31.9273 49.6059C31.9986 49.6818 32.0674 49.7221 32.136 49.7933L36.2407 45.686L6.92611 16.3712C6.21184 15.6642 6.21184 14.5039 6.92611 13.8039C7.63308 13.0873 8.77673 13.0873 9.49334 13.8039L38.7986 43.1258L43.3708 38.5442L14.056 9.23401C13.3394 8.52471 13.3394 7.37609 14.056 6.66678C14.7629 5.95981 15.9139 5.95981 16.6139 6.66678L45.9427 35.9957L50.0404 31.8837C49.9788 31.8125 49.9335 31.7366 49.8696 31.6677L46.6118 28.4052L21.9191 3.71951C16.965 -1.24419 8.92385 -1.23719 3.97183 3.71951C-0.989244 8.67182 -0.989244 16.7034 3.97212 21.6577Z" fill="#60E28D"/>
<path d="M109.674 23.8336C109.375 19.9141 105.911 19.1522 103.132 21.9308L93.4232 31.6422C91.1692 33.9128 87.4749 33.9058 85.2136 31.6422L78.9235 25.3594C76.6459 23.0697 76.6529 19.3872 78.9165 17.1142L88.9554 7.08491C91.7363 4.30635 91.0314 0.71661 87.1284 0.251619C79.5785 -0.650049 71.7105 1.79137 65.914 7.58318C61.4985 12.006 59.0331 17.6457 58.5112 23.4209C58.3025 25.7558 58.4117 28.1117 58.8314 30.4276L4.95202 84.3114C2.10719 87.1585 0.536499 90.9383 0.536499 94.9647C0.536499 98.9818 2.10719 102.757 4.94501 105.599C10.815 111.467 20.3627 111.467 26.2424 105.599C26.2424 105.599 64.972 66.8743 80.6556 51.1718C83.121 51.5086 85.617 51.485 88.0727 51.0959C93.2594 50.2844 98.2444 47.9069 102.247 43.9114C107.754 38.4042 110.224 31.0274 109.674 23.8336ZM20.6829 100.97C17.6031 104.033 12.649 104.033 9.57857 100.963C6.52242 97.914 6.51541 92.936 9.58558 89.8799C12.6487 86.8237 17.6028 86.831 20.6733 89.8799C23.7297 92.936 23.7297 97.914 20.6829 100.97Z" fill="#60E28D"/>
</svg>
