<svg width="110" height="110" viewBox="0 0 110 110" fill="none" xmlns="http://www.w3.org/2000/svg">
<g clip-path="url(#clip0)">
<path d="M55.0003 0C24.6729 0 0 24.6729 0 55.0003C0 85.3276 24.6729 110.001 55.0003 110.001C85.3276 110.001 110.001 85.3276 110.001 55.0003C110.001 24.6729 85.3271 0 55.0003 0ZM55.0003 92.7439C34.1548 92.7439 17.2566 75.8452 17.2566 55.0003C17.2566 34.1548 34.1553 17.2566 55.0003 17.2566C75.8452 17.2566 92.7439 34.1553 92.7439 55.0003C92.7439 75.8458 75.8458 92.7439 55.0003 92.7439Z" fill="#60E28D"/>
<path d="M66.4391 54.4826C64.1051 52.3906 60.6285 50.7917 56.0985 49.728C52.7924 48.9687 51.2847 48.1244 50.5882 47.5382C49.8027 46.8922 49.4369 46.0541 49.4369 44.8873C49.4256 43.4692 49.8135 42.6162 50.7088 41.8677C51.6576 41.0595 53.1546 40.7406 55.0538 40.7406H55.1615C56.8274 40.7406 57.3925 40.9739 58.2831 41.7554C59.1372 42.5049 59.691 43.7319 59.9357 45.5498L60.2247 47.3151L69.0044 47.2471L68.9277 45.0285C68.7226 41.1635 67.2422 38.0486 64.5131 35.7666C62.8152 34.3824 61.308 33.4315 59.1089 32.9241L59.0862 27.9506L49.9855 28.0129L50.0242 33.1724C48.0214 33.7256 46.2324 34.6513 44.6926 35.9309C41.8507 38.2804 40.4223 41.3289 40.446 44.9924C40.464 48.196 41.6256 50.9133 43.9066 53.0763C46.0062 55.043 49.1279 56.5194 53.1814 57.4625C57.1432 58.3908 58.9734 59.3685 59.8069 60.0222C60.7954 60.8041 61.2364 61.7674 61.2364 63.1469C61.2364 64.9483 60.7418 66.2233 59.6755 67.1634C58.5531 68.1601 56.8738 68.6747 54.6958 68.6922C52.5066 68.6922 51.5974 68.2214 50.4754 67.2138C49.3962 66.2789 48.8801 64.9653 48.8497 63.048L48.7735 60.987L40.0272 61.0179L39.7892 64.0479L39.7918 64.1313C39.8886 67.3905 41.3845 70.2896 44.2615 72.7684C46.2669 74.4281 47.9724 75.564 50.2508 76.1698L50.2889 82.0473L59.3922 82.0236L59.3484 76.1533C61.8318 75.5434 63.9753 74.4477 65.721 72.8987C68.7257 70.3308 70.2381 66.9995 70.2144 63.0068C70.2119 59.6626 68.9086 56.7177 66.4391 54.4826Z" fill="#60E28D"/>
</g>
<defs>
<clipPath id="clip0">
<rect width="110" height="110" fill="white"/>
</clipPath>
</defs>
</svg>
