<svg width="40" height="40" viewBox="0 0 40 40" fill="none" xmlns="http://www.w3.org/2000/svg">
<g clip-path="url(#clip0)">
<path fill-rule="evenodd" clip-rule="evenodd" d="M39.85 7.7C38.5787 8.275 37.18 8.62375 35.81 8.85375C36.46 8.74375 37.42 7.56625 37.8037 7.08875C38.3887 6.3625 38.875 5.5325 39.1487 4.63875C39.1837 4.56875 39.2112 4.48125 39.1412 4.4275C39.0537 4.39375 38.9962 4.41125 38.9262 4.44625C37.4094 5.25619 35.7973 5.87347 34.1275 6.28375C34.0696 6.30175 34.0079 6.3031 33.9493 6.28762C33.8907 6.27215 33.8377 6.24048 33.7962 6.19625C33.668 6.04231 33.528 5.89854 33.3775 5.76625C32.6843 5.16913 31.8992 4.68793 31.0525 4.34125C29.9222 3.88345 28.7031 3.68689 27.4862 3.76625C26.3042 3.84661 25.1518 4.17227 24.1025 4.7225C23.0514 5.27196 22.1234 6.02988 21.375 6.95C20.5984 7.90535 20.0418 9.02012 19.745 10.215C19.465 11.365 19.4875 12.5 19.6575 13.6612C19.685 13.8537 19.6675 13.88 19.4937 13.8537C12.8987 12.875 7.43623 10.515 2.99998 5.4625C2.80748 5.2425 2.70248 5.2425 2.54498 5.47875C0.603734 8.38875 1.54498 13.0625 3.96998 15.36C4.29373 15.6662 4.62498 15.9725 4.98373 16.2512C4.85373 16.2787 3.23998 16.1037 1.80123 15.36C1.60873 15.2387 1.51248 15.3087 1.49498 15.5262C1.48249 15.8422 1.50007 16.1586 1.54748 16.4712C1.91998 19.4212 3.96248 22.1487 6.75998 23.2137C7.09248 23.3525 7.45873 23.4762 7.81748 23.5362C7.17998 23.6762 6.52373 23.7762 4.69623 23.6337C4.46873 23.5887 4.38123 23.7025 4.46873 23.9212C5.84123 27.665 8.80623 28.7787 11.0262 29.4125C11.3237 29.465 11.6212 29.465 11.9187 29.535C11.9012 29.5612 11.8837 29.5612 11.8662 29.5875C11.1287 30.71 8.57623 31.5462 7.38748 31.9625C5.22498 32.7175 2.87123 33.0575 0.584984 32.8325C0.219984 32.7787 0.142484 32.7825 0.0437341 32.8325C-0.0562659 32.895 0.0312341 32.9825 0.148734 33.0762C0.611234 33.3825 1.08373 33.6537 1.56498 33.9162C3.00991 34.6866 4.53483 35.2965 6.11248 35.735C14.2837 37.9912 23.4875 36.3337 29.625 30.2375C34.4412 25.45 36.13 18.8487 36.13 12.2375C36.13 11.98 36.435 11.8375 36.6175 11.7C37.8712 10.7587 38.8675 9.63125 39.8025 8.3725C40.0125 8.09 40 7.83875 40 7.735V7.7C40 7.595 40.0125 7.62625 39.85 7.7Z" fill="#8FEAAF"/>
</g>
<defs>
<clipPath id="clip0">
<rect width="40" height="40" fill="white"/>
</clipPath>
</defs>
</svg>
